<?xml version="1.0" encoding="utf-8"?>
<!-- Generator: Adobe Illustrator 28.0.0, SVG Export Plug-In . SVG Version: 6.00 Build 0)  -->
<svg version="1.1" id="FAVICON" xmlns="http://www.w3.org/2000/svg" xmlns:xlink="http://www.w3.org/1999/xlink" x="0px" y="0px"
	 viewBox="0 0 128 128" style="enable-background:new 0 0 128 128;" xml:space="preserve">
<style type="text/css">
	.st0{fill:#FFFFFF;}
	.st1{fill:#D01126;}
	.st2{fill:#024A8B;}
</style>
<path id="BG" class="st0" d="M96,128H32c-17.67,0-32-14.33-32-32V32C0,14.33,14.33,0,32,0h64c17.67,0,32,14.33,32,32v64
	C128,113.67,113.67,128,96,128z"/>
<g id="LOGO">
	<path class="st1" d="M32.88,72.79c0,2-0.06,2.19-0.16,2.72c-0.09,0.43-0.27,0.74-0.56,0.93c-0.22,0.15-0.72,0.32-1.88,0.32h-1.31
		l-1.37,2.18L46,78.96l-1.37-2.18h-1.02c-1.28,0-1.78-0.22-1.94-0.35c-0.29-0.21-0.47-0.54-0.54-1.02
		c-0.09-0.57-0.13-0.74-0.12-2.61v-5.14h-8.13V72.79L32.88,72.79z"/>
	<path class="st2" d="M27.62,48.64l1.37,2.18h1.1c1.5,0,1.99,0.16,2.15,0.27c0.25,0.15,0.41,0.43,0.49,0.85
		c0.1,0.53,0.15,1.8,0.15,3.7v4.65l-10.41-0.01c-1.99,0-2.55-0.06-3.08-0.16c-0.43-0.09-0.74-0.27-0.93-0.56
		c-0.15-0.22-0.32-0.74-0.32-1.9v-1.31l-2.12-1.35L16,72.64l2.14-1.37v-1.02c0-1.3,0.22-1.78,0.34-1.96
		c0.21-0.29,0.54-0.47,1.02-0.54c0.57-0.09,1.09-0.13,2.97-0.13l10.41,0.01h2.28h0.03h5.82v-6.95v-5.08c0-2.46,0.1-3.42,0.18-3.77
		c0.09-0.41,0.27-0.66,0.52-0.8c0.18-0.09,0.68-0.24,2.14-0.24h0.82l1.37-2.18L27.62,48.64L27.62,48.64z"/>
	<path class="st1" d="M45.35,63.56c0.06-1.24,0.52-2.37,1.25-3.27h-5.6v7.38h5.91C45.88,66.61,45.28,65.15,45.35,63.56L45.35,63.56z
		"/>
	<path class="st1" d="M71.28,76.8c-1.28,0-1.78-0.22-1.94-0.34c-0.29-0.21-0.47-0.54-0.54-1.02c-0.09-0.57-0.13-0.74-0.12-2.61V67.7
		h21.49l-1.59-2.72c-0.63-1.03-0.4-2.37,0.56-3.12l0.13-0.1c0.62-0.49,1.18-0.96,1.69-1.41H68.68v-4.65c0-2.46,0.1-3.42,0.18-3.77
		c0.09-0.41,0.27-0.66,0.52-0.8c0.18-0.09,0.68-0.24,2.14-0.24h0.82l1.37-2.21l-18.26-0.01l1.37,2.18h1.1c1.5,0,1.99,0.16,2.15,0.27
		c0.25,0.15,0.41,0.43,0.49,0.85c0.1,0.53,0.15,1.8,0.15,3.7v4.65h-5.55c0.82,1.02,1.31,2.33,1.24,3.76
		c-0.06,1.41-0.65,2.68-1.56,3.62h5.88v5.14c0,2-0.06,2.19-0.16,2.72c-0.09,0.43-0.27,0.74-0.56,0.93
		c-0.22,0.15-0.72,0.32-1.88,0.32h-1.31l-1.37,2.18l18.26,0.01l-1.37-2.18h-1.02V76.8z"/>
	<path class="st1" d="M109.88,56.42v1.1c0,1.5-0.16,2-0.27,2.16c-0.15,0.25-0.43,0.41-0.85,0.49c-0.53,0.1-1.3,0.15-3.18,0.15h-5.8
		c-0.12,0.16-0.24,0.32-0.35,0.47c0.85,0.69,1.62,1.41,2.27,2.15c1.16,1.3,1.88,2.89,2.15,4.74h1.72c2.46,0,2.92,0.1,3.25,0.18
		c0.4,0.09,0.66,0.27,0.8,0.52c0.09,0.18,0.24,0.68,0.24,2.14v0.82l2.14,1.37L112,55.03L109.88,56.42z"/>
	<path class="st2" d="M100.75,63.79c-0.87-0.97-1.93-1.9-3.15-2.8c1.97-2.16,2.97-4.39,2.97-6.64c0-1.33-0.34-2.5-1-3.5
		c-0.66-0.99-1.59-1.77-2.75-2.3c-1.12-0.5-2.37-0.77-3.71-0.77c-2.74,0-5.6,1.27-8.51,3.77l-1.09,0.97l1.63,1.56
		c0.52,0.5,1.16,0.57,1.69,0.18c1.65-1.27,3.15-1.91,4.49-1.91c1.09,0,1.99,0.35,2.72,1.08c0.74,0.71,1.09,1.55,1.09,2.56
		c0,1.16-0.4,2.18-1.19,3.14c-0.93,1.1-2.24,2.33-3.89,3.62l-0.13,0.1c-0.44,0.35-0.56,0.99-0.25,1.47l1.69,2.9
		c0.21,0.32,0.56,0.53,0.94,0.53h3.48c0.82,0,0.87,0.37,1.24,0.91c0.49,0.72,0.6,1.66,0.6,2.68c0,0.93-0.22,1.77-0.66,2.56
		c-0.46,0.8-1.05,1.4-1.81,1.87c-0.75,0.46-1.52,0.68-2.33,0.68c-0.85,0-1.75-0.25-2.67-0.72c-0.97-0.52-1.8-1.12-2.44-1.78
		c-0.12-0.12-0.21-0.22-0.29-0.32c-0.32-0.37-0.35-0.91-0.09-1.33l0.71-1.09c-1.71-1-3.9-0.43-4.92,1.28L81.63,75l0.47,0.66
		c1.16,1.59,2.58,2.77,4.21,3.49c1.59,0.71,3.21,1.06,4.82,1.06c2.3,0,4.36-0.54,6.11-1.62c1.74-1.06,3.11-2.44,4.05-4.11
		c0.94-1.66,1.41-3.37,1.41-5.07C102.69,67.12,102.05,65.24,100.75,63.79L100.75,63.79z"/>
	<path class="st1" d="M54.32,63.37c0-0.84-0.68-1.52-1.52-1.52c-0.12,0-0.25,0.01-0.37,0.04c-0.04-0.8-0.71-1.43-1.52-1.43
		s-1.47,0.63-1.52,1.43c-0.12-0.03-0.25-0.04-0.4-0.04c-0.84,0-1.52,0.68-1.52,1.52c0,0.65,0.4,1.19,0.96,1.41
		c-0.16,0.24-0.25,0.53-0.25,0.85c0,0.84,0.68,1.52,1.52,1.52c0.49,0,0.91-0.22,1.19-0.57c0.28,0.35,0.71,0.57,1.19,0.57
		c0.84,0,1.52-0.68,1.52-1.52c0-0.31-0.09-0.6-0.25-0.85C53.92,64.56,54.32,64,54.32,63.37L54.32,63.37z M53.02,63.44
		c-0.06,0.01-0.13,0-0.18-0.06l-1.56,0.5c0.01,0.03,0.01,0.07,0.01,0.1c0,0,0,0,0,0.01l1.1,0.1c0.01-0.03,0.06-0.06,0.1-0.06
		c0.06,0,0.1,0.06,0.09,0.12c0,0.06-0.06,0.1-0.12,0.09c-0.04,0-0.07-0.03-0.09-0.07l-1.1-0.1c0,0.03-0.01,0.07-0.03,0.1l0.85,0.53
		c0.03-0.03,0.09-0.04,0.13-0.01c0.04,0.03,0.07,0.1,0.03,0.15c-0.03,0.04-0.1,0.07-0.15,0.03c-0.03-0.03-0.06-0.06-0.04-0.1
		l-0.87-0.53c-0.01,0.01-0.03,0.04-0.04,0.06l1.02,1.31c0.06-0.03,0.13-0.01,0.18,0.04c0.04,0.06,0.03,0.15-0.03,0.21
		c-0.06,0.04-0.15,0.03-0.21-0.03c-0.04-0.06-0.04-0.13,0-0.18l-1.02-1.31c-0.03,0.01-0.06,0.03-0.1,0.04l0.19,1.1
		c0.04,0,0.09,0.04,0.09,0.09c0.01,0.06-0.03,0.12-0.09,0.13c-0.06,0.01-0.12-0.03-0.12-0.09c0-0.04,0.01-0.09,0.04-0.1l-0.19-1.1
		c-0.01,0-0.03,0-0.04,0s-0.03,0-0.04,0l-0.25,1.13c0.03,0.03,0.04,0.07,0.04,0.1c-0.01,0.06-0.07,0.09-0.13,0.07
		c-0.06-0.01-0.09-0.07-0.07-0.13c0.01-0.04,0.06-0.07,0.1-0.09l0.25-1.12c-0.03-0.01-0.06-0.03-0.09-0.04l-1.02,1.38
		c0.04,0.04,0.04,0.12,0,0.18s-0.13,0.07-0.21,0.03c-0.06-0.04-0.07-0.13-0.03-0.21c0.04-0.06,0.1-0.07,0.18-0.04l1.02-1.38
		c-0.01-0.01-0.04-0.03-0.06-0.06l-0.87,0.53c0,0.03-0.01,0.07-0.04,0.09c-0.04,0.03-0.12,0.01-0.15-0.03
		c-0.03-0.04-0.01-0.12,0.03-0.15c0.04-0.03,0.09-0.01,0.12,0.01l0.85-0.53c-0.01-0.03-0.03-0.07-0.04-0.1l-1.09,0.1
		c-0.01,0.04-0.04,0.07-0.1,0.09c-0.06,0-0.12-0.04-0.12-0.1s0.04-0.12,0.1-0.12c0.04,0,0.09,0.01,0.1,0.06l1.09-0.1c0,0,0,0,0-0.01
		c0-0.03,0-0.07,0.01-0.1l-1.55-0.49c-0.03,0.06-0.1,0.09-0.18,0.06c-0.07-0.03-0.12-0.1-0.1-0.19c0.03-0.07,0.1-0.12,0.19-0.1
		c0.06,0.01,0.1,0.09,0.1,0.15l1.55,0.49c0.01-0.03,0.03-0.06,0.04-0.07l-0.78-0.69c-0.04,0.03-0.1,0.03-0.15-0.01
		c-0.04-0.04-0.06-0.12-0.01-0.18c0.04-0.04,0.12-0.06,0.18-0.01c0.04,0.03,0.04,0.1,0.03,0.15l0.78,0.69
		c0.03-0.03,0.06-0.04,0.09-0.06l-0.44-0.97c-0.06,0.01-0.1-0.01-0.13-0.06c-0.03-0.06,0-0.13,0.06-0.15c0.06-0.03,0.13,0,0.15,0.06
		c0.01,0.04,0.01,0.09-0.01,0.12l0.44,0.99c0.03,0,0.04-0.01,0.07-0.01v-1.61c-0.06-0.01-0.12-0.07-0.12-0.15
		c0-0.09,0.07-0.15,0.15-0.15s0.15,0.07,0.15,0.15s-0.04,0.13-0.12,0.15v1.61c0.03,0,0.06,0.01,0.09,0.01l0.46-1l0,0
		c-0.04-0.03-0.06-0.09-0.03-0.13c0.03-0.06,0.1-0.09,0.15-0.06c0.06,0.03,0.09,0.1,0.06,0.15c-0.03,0.04-0.07,0.07-0.12,0.07l0,0
		l-0.46,1c0.03,0.01,0.06,0.03,0.07,0.06l0.8-0.69c-0.03-0.04-0.01-0.1,0.03-0.15c0.04-0.04,0.13-0.04,0.18,0.01
		c0.04,0.06,0.04,0.13-0.01,0.18c-0.04,0.04-0.1,0.04-0.15,0.01l-0.78,0.69c0.01,0.03,0.03,0.04,0.04,0.07l1.56-0.5
		c0-0.07,0.04-0.13,0.1-0.15c0.07-0.03,0.16,0.01,0.19,0.1C53.14,63.32,53.1,63.4,53.02,63.44L53.02,63.44z"/>
</g>
</svg>
