<?xml version="1.0" encoding="utf-8"?>
<!-- Generator: Adobe Illustrator 28.0.0, SVG Export Plug-In . SVG Version: 6.00 Build 0)  -->
<svg version="1.1" id="圖層_1" xmlns="http://www.w3.org/2000/svg" xmlns:xlink="http://www.w3.org/1999/xlink" x="0px" y="0px"
	 viewBox="0 0 652 220" style="enable-background:new 0 0 652 220;" xml:space="preserve">
<style type="text/css">
	.st0{fill:#D01126;}
	.st1{fill:#024A8B;}
</style>
<path class="st0" d="M114.6,169.8c0,13.6-0.4,14.9-1.1,18.5c-0.6,2.9-1.8,5-3.8,6.3c-1.5,1-4.9,2.2-12.8,2.2H88l-9.3,14.8l125,0.1
	l-9.3-14.8h-6.9c-8.7,0-12.1-1.5-13.2-2.4c-2-1.4-3.2-3.7-3.7-6.9c-0.6-3.9-0.9-5-0.8-17.7l0-34.9l-55.2,0L114.6,169.8L114.6,169.8z
	"/>
<path class="st1" d="M78.9,5.8l9.3,14.8h7.5c10.2,0,13.5,1.1,14.6,1.8c1.7,1,2.8,2.9,3.3,5.8c0.7,3.6,1,12.2,1,25.1l0,31.6
	l-70.7-0.1c-13.5,0-17.3-0.4-20.9-1.1c-2.9-0.6-5-1.8-6.3-3.8c-1-1.5-2.2-5-2.2-12.9v-8.9L0.1,48.9L0,168.8l14.5-9.3v-6.9
	c0-8.8,1.5-12.1,2.3-13.3c1.4-2,3.7-3.2,6.9-3.7c3.9-0.6,7.4-0.9,20.2-0.9l70.7,0.1l15.5,0h0.2h39.5l0-47.2l0-34.5
	c0-16.7,0.7-23.2,1.2-25.6c0.6-2.8,1.8-4.5,3.5-5.4c1.2-0.6,4.6-1.6,14.5-1.6h5.6l9.3-14.8L78.9,5.8L78.9,5.8z"/>
<path class="st0" d="M199.3,107.1c0.4-8.4,3.5-16.1,8.5-22.2l-38,0l0,50.1l40.1,0C202.9,127.8,198.8,117.9,199.3,107.1L199.3,107.1z
	"/>
<path class="st0" d="M375.4,197c-8.7,0-12.1-1.5-13.2-2.3c-2-1.4-3.2-3.7-3.7-6.9c-0.6-3.9-0.9-5-0.8-17.7l0-34.9l145.9,0
	l-10.8-18.5c-4.3-7-2.7-16.1,3.8-21.2l0.9-0.7c4.2-3.3,8-6.5,11.5-9.6l-151.3,0l0-31.6c0-16.7,0.7-23.2,1.2-25.6
	c0.6-2.8,1.8-4.5,3.5-5.4c1.2-0.6,4.6-1.6,14.5-1.6h5.6L391.8,6l-124-0.1l9.3,14.8h7.5c10.2,0,13.5,1.1,14.6,1.8
	c1.7,1,2.8,2.9,3.3,5.8c0.7,3.6,1,12.2,1,25.1l0,31.6l-37.7,0c5.6,6.9,8.9,15.8,8.4,25.5c-0.4,9.6-4.4,18.2-10.6,24.6l39.9,0l0,34.9
	c0,13.6-0.4,14.9-1.1,18.5c-0.6,2.9-1.8,5-3.8,6.3c-1.5,1-4.9,2.2-12.8,2.2h-8.9l-9.3,14.8l124,0.1l-9.3-14.8H375.4L375.4,197z"/>
<path class="st0" d="M637.5,58.6v7.5c0,10.2-1.1,13.6-1.8,14.7c-1,1.7-2.9,2.8-5.8,3.3c-3.6,0.7-8.8,1-21.6,1h-39.4
	c-0.8,1.1-1.6,2.2-2.4,3.2c5.8,4.7,11,9.6,15.4,14.6c7.9,8.8,12.8,19.6,14.6,32.2h11.7c16.7,0,19.8,0.7,22.1,1.2
	c2.7,0.6,4.5,1.8,5.4,3.5c0.6,1.2,1.6,4.6,1.6,14.5v5.6l14.5,9.3l0.1-120L637.5,58.6z"/>
<path class="st1" d="M575.5,108.7c-5.9-6.6-13.1-12.9-21.4-19c13.4-14.7,20.2-29.8,20.2-45.1c0-9-2.3-17-6.8-23.8
	c-4.5-6.7-10.8-12-18.7-15.6C541.2,1.8,532.7,0,523.6,0c-18.6,0-38,8.6-57.8,25.6l-7.4,6.6l11.1,10.6c3.5,3.4,7.9,3.9,11.5,1.2
	c11.2-8.6,21.4-13,30.5-13c7.4,0,13.5,2.4,18.5,7.3c5,4.8,7.4,10.5,7.4,17.4c0,7.9-2.7,14.8-8.1,21.3c-6.3,7.5-15.2,15.8-26.4,24.6
	l-0.9,0.7c-3,2.4-3.8,6.7-1.7,10l11.5,19.7c1.4,2.2,3.8,3.6,6.4,3.6h23.6c5.6,0,5.9,2.5,8.4,6.2c3.3,4.9,4.1,11.3,4.1,18.2
	c0,6.3-1.5,12-4.5,17.4c-3.1,5.4-7.1,9.5-12.3,12.7c-5.1,3.1-10.3,4.6-15.8,4.6c-5.8,0-11.9-1.7-18.1-4.9
	c-6.6-3.5-12.2-7.6-16.6-12.1c-0.8-0.8-1.4-1.5-2-2.2c-2.2-2.5-2.4-6.2-0.6-9l4.8-7.4c-11.6-6.8-26.5-2.9-33.4,8.7l-10.1,17l3.2,4.5
	c7.9,10.8,17.5,18.8,28.6,23.7c10.8,4.8,21.8,7.2,32.7,7.2c15.6,0,29.6-3.7,41.5-11c11.8-7.2,21.1-16.6,27.5-27.9s9.6-22.9,9.6-34.4
	C588.7,131.3,584.3,118.5,575.5,108.7L575.5,108.7z"/>
<path class="st0" d="M260.2,105.8c0-5.7-4.6-10.3-10.3-10.3c-0.8,0-1.7,0.1-2.5,0.3c-0.3-5.4-4.8-9.7-10.3-9.7
	c-5.5,0-10,4.3-10.3,9.7c-0.8-0.2-1.7-0.3-2.7-0.3c-5.7,0-10.3,4.6-10.3,10.3c0,4.4,2.7,8.1,6.5,9.6c-1.1,1.6-1.7,3.6-1.7,5.8
	c0,5.7,4.6,10.3,10.3,10.3c3.3,0,6.2-1.5,8.1-3.9c1.9,2.4,4.8,3.9,8.1,3.9c5.7,0,10.3-4.6,10.3-10.3c0-2.1-0.6-4.1-1.7-5.8
	C257.5,113.9,260.2,110.1,260.2,105.8L260.2,105.8z M251.4,106.3c-0.4,0.1-0.9,0-1.2-0.4l-10.6,3.4c0.1,0.2,0.1,0.5,0.1,0.7
	c0,0,0,0,0,0.1l7.5,0.7c0.1-0.2,0.4-0.4,0.7-0.4c0.4,0,0.7,0.4,0.6,0.8c0,0.4-0.4,0.7-0.8,0.6c-0.3,0-0.5-0.2-0.6-0.5l-7.5-0.7
	c0,0.2-0.1,0.5-0.2,0.7l5.8,3.6c0.2-0.2,0.6-0.3,0.9-0.1c0.3,0.2,0.5,0.7,0.2,1c-0.2,0.3-0.7,0.5-1,0.2c-0.2-0.2-0.4-0.4-0.3-0.7
	l-5.9-3.6c-0.1,0.1-0.2,0.3-0.3,0.4l6.9,8.9c0.4-0.2,0.9-0.1,1.2,0.3c0.3,0.4,0.2,1-0.2,1.4c-0.4,0.3-1,0.2-1.4-0.2
	c-0.3-0.4-0.3-0.9,0-1.2l-6.9-8.9c-0.2,0.1-0.4,0.2-0.7,0.3l1.3,7.5c0.3,0,0.6,0.3,0.6,0.6c0.1,0.4-0.2,0.8-0.6,0.9
	c-0.4,0.1-0.8-0.2-0.8-0.6c0-0.3,0.1-0.6,0.3-0.7l-1.3-7.5c-0.1,0-0.2,0-0.3,0c-0.1,0-0.2,0-0.3,0l-1.7,7.7c0.2,0.2,0.3,0.5,0.3,0.7
	c-0.1,0.4-0.5,0.6-0.9,0.5c-0.4-0.1-0.6-0.5-0.5-0.9c0.1-0.3,0.4-0.5,0.7-0.6l1.7-7.6c-0.2-0.1-0.4-0.2-0.6-0.3l-6.9,9.4
	c0.3,0.3,0.3,0.8,0,1.2c-0.3,0.4-0.9,0.5-1.4,0.2c-0.4-0.3-0.5-0.9-0.2-1.4c0.3-0.4,0.7-0.5,1.2-0.3l6.9-9.4
	c-0.1-0.1-0.3-0.2-0.4-0.4l-5.9,3.6c0,0.2-0.1,0.5-0.3,0.6c-0.3,0.2-0.8,0.1-1-0.2c-0.2-0.3-0.1-0.8,0.2-1c0.3-0.2,0.6-0.1,0.8,0.1
	l5.8-3.6c-0.1-0.2-0.2-0.5-0.3-0.7l-7.4,0.7c-0.1,0.3-0.3,0.5-0.7,0.6c-0.4,0-0.8-0.3-0.8-0.7s0.3-0.8,0.7-0.8
	c0.3,0,0.6,0.1,0.7,0.4l7.4-0.7c0,0,0,0,0-0.1c0-0.2,0-0.5,0.1-0.7l-10.5-3.3c-0.2,0.4-0.7,0.6-1.2,0.4c-0.5-0.2-0.8-0.7-0.7-1.3
	c0.2-0.5,0.7-0.8,1.3-0.7c0.4,0.1,0.7,0.6,0.7,1l10.5,3.3c0.1-0.2,0.2-0.4,0.3-0.5l-5.3-4.7c-0.3,0.2-0.7,0.2-1-0.1
	c-0.3-0.3-0.4-0.8-0.1-1.2c0.3-0.3,0.8-0.4,1.2-0.1c0.3,0.2,0.3,0.7,0.2,1l5.3,4.7c0.2-0.2,0.4-0.3,0.6-0.4l-3-6.6
	c-0.4,0.1-0.7-0.1-0.9-0.4c-0.2-0.4,0-0.9,0.4-1c0.4-0.2,0.9,0,1,0.4c0.1,0.3,0.1,0.6-0.1,0.8l3,6.7c0.2,0,0.3-0.1,0.5-0.1V96.2
	c-0.4-0.1-0.8-0.5-0.8-1c0-0.6,0.5-1,1-1c0.5,0,1,0.5,1,1c0,0.5-0.3,0.9-0.8,1v10.9c0.2,0,0.4,0.1,0.6,0.1l3.1-6.8h0
	c-0.3-0.2-0.4-0.6-0.2-0.9c0.2-0.4,0.7-0.6,1-0.4c0.4,0.2,0.6,0.7,0.4,1c-0.2,0.3-0.5,0.5-0.8,0.5h0l-3.1,6.8
	c0.2,0.1,0.4,0.2,0.5,0.4l5.4-4.7c-0.2-0.3-0.1-0.7,0.2-1c0.3-0.3,0.9-0.3,1.2,0.1c0.3,0.4,0.3,0.9-0.1,1.2c-0.3,0.3-0.7,0.3-1,0.1
	l-5.3,4.7c0.1,0.2,0.2,0.3,0.3,0.5l10.6-3.4c0-0.5,0.3-0.9,0.7-1c0.5-0.2,1.1,0.1,1.3,0.7C252.2,105.5,251.9,106,251.4,106.3
	L251.4,106.3z"/>
</svg>
