<?xml version="1.0" encoding="utf-8"?>
<!-- Generator: Adobe Illustrator 28.0.0, SVG Export Plug-In . SVG Version: 6.00 Build 0)  -->
<svg version="1.1" id="圖層_1" xmlns="http://www.w3.org/2000/svg" xmlns:xlink="http://www.w3.org/1999/xlink" x="0px" y="0px"
	 viewBox="0 0 72 72" style="enable-background:new 0 0 72 72;" xml:space="preserve">
<style type="text/css">
	.st0{fill:#D01126;}
</style>
<path class="st0" d="M71.99,31.36c0-8.85-7.17-16.02-16.02-16.02c-1.31,0-2.59,0.16-3.82,0.47C51.63,7.42,44.67,0.79,36.16,0.79
	s-15.52,6.68-15.99,15.1c-1.32-0.35-2.71-0.55-4.14-0.55C7.17,15.34,0,22.52,0,31.36c0,6.76,4.2,12.55,10.13,14.89
	c-1.72,2.55-2.72,5.63-2.72,8.94c0,8.85,7.17,16.02,16.02,16.02c5.09,0,9.63-2.38,12.56-6.07c2.93,3.7,7.47,6.07,12.56,6.07
	c8.85,0,16.02-7.17,16.02-16.02c0-3.3-1-6.38-2.71-8.93C67.8,43.92,72,38.13,71.99,31.36L71.99,31.36z M58.3,32.13
	c-0.7,0.22-1.42-0.07-1.8-0.66L40.1,36.68c0.09,0.35,0.14,0.71,0.14,1.07c0,0.03,0,0.06,0,0.09l11.66,1.02
	c0.2-0.38,0.61-0.62,1.06-0.58c0.6,0.05,1.05,0.58,0.99,1.18c-0.05,0.6-0.58,1.05-1.18,0.99c-0.47-0.04-0.85-0.38-0.96-0.82
	l-11.65-1.02c-0.08,0.38-0.21,0.73-0.38,1.06l9.07,5.61c0.37-0.37,0.96-0.46,1.41-0.17c0.55,0.33,0.71,1.05,0.38,1.58
	c-0.33,0.55-1.05,0.71-1.58,0.38c-0.38-0.23-0.57-0.65-0.54-1.07l-9.16-5.66c-0.16,0.21-0.35,0.41-0.55,0.6l10.69,13.88
	c0.63-0.26,1.37-0.09,1.81,0.47c0.52,0.67,0.38,1.64-0.29,2.15c-0.67,0.52-1.64,0.38-2.15-0.29c-0.43-0.56-0.4-1.32,0-1.86
	l-10.7-13.89c-0.32,0.2-0.67,0.36-1.05,0.47l2.09,11.59c0.48,0.05,0.9,0.42,0.99,0.92c0.11,0.62-0.3,1.21-0.92,1.31
	s-1.21-0.3-1.31-0.92c-0.08-0.46,0.13-0.89,0.48-1.14l-2.09-11.63c-0.14,0.02-0.3,0.02-0.44,0.02c-0.16,0-0.31-0.01-0.47-0.03
	l-2.71,11.92c0.33,0.26,0.51,0.7,0.41,1.14c-0.14,0.61-0.74,0.99-1.36,0.85c-0.61-0.14-0.99-0.74-0.85-1.36
	c0.12-0.51,0.55-0.85,1.05-0.88l2.69-11.84c-0.34-0.1-0.65-0.24-0.95-0.42L23.08,55.97c0.42,0.53,0.47,1.3,0.04,1.86
	c-0.5,0.68-1.46,0.82-2.15,0.32c-0.68-0.5-0.82-1.46-0.32-2.15c0.42-0.57,1.16-0.76,1.79-0.51l10.67-14.54
	c-0.21-0.18-0.4-0.38-0.57-0.6l-9.14,5.65c0.02,0.38-0.16,0.76-0.51,0.98c-0.51,0.31-1.17,0.15-1.48-0.35
	c-0.31-0.51-0.15-1.17,0.35-1.48c0.43-0.27,0.98-0.19,1.31,0.14l9.04-5.59c-0.18-0.35-0.32-0.72-0.4-1.11l-11.49,1
	c-0.11,0.47-0.5,0.83-1,0.88c-0.63,0.05-1.18-0.41-1.23-1.04c-0.05-0.63,0.41-1.18,1.04-1.23c0.47-0.04,0.91,0.21,1.12,0.62l11.49-1
	c0,0,0-0.06,0-0.1c0-0.38,0.05-0.76,0.15-1.11l-16.3-5.18c-0.37,0.59-1.1,0.89-1.8,0.66c-0.82-0.26-1.28-1.14-1.02-1.97
	c0.26-0.82,1.14-1.28,1.97-1.02c0.7,0.22,1.12,0.89,1.08,1.57l16.33,5.2c0.14-0.3,0.32-0.58,0.53-0.84l-8.24-7.28
	c-0.47,0.29-1.1,0.25-1.54-0.13c-0.55-0.48-0.59-1.31-0.12-1.85c0.48-0.55,1.31-0.59,1.85-0.12c0.44,0.38,0.55,1,0.32,1.51l8.27,7.3
	c0.27-0.23,0.55-0.43,0.87-0.59l-4.6-10.19c-0.56,0.13-1.16-0.14-1.4-0.69c-0.28-0.62,0-1.34,0.62-1.63c0.62-0.28,1.34,0,1.63,0.62
	c0.2,0.44,0.12,0.92-0.17,1.27l4.65,10.32c0.27-0.08,0.55-0.13,0.82-0.16V16.5c-0.67-0.18-1.17-0.78-1.17-1.51
	c0-0.87,0.7-1.57,1.57-1.57c0.87,0,1.57,0.7,1.57,1.57c0,0.73-0.5,1.33-1.17,1.51v16.92c0.32,0.03,0.64,0.09,0.93,0.19l4.79-10.6
	l0.04,0.02c-0.4-0.35-0.55-0.92-0.33-1.43c0.28-0.62,1-0.89,1.63-0.62c0.62,0.28,0.89,1,0.62,1.63c-0.23,0.51-0.77,0.78-1.3,0.71
	l0.04,0.02l-4.78,10.58c0.3,0.16,0.58,0.37,0.83,0.59l8.32-7.35c-0.22-0.51-0.12-1.13,0.32-1.52c0.55-0.48,1.38-0.43,1.85,0.12
	c0.48,0.55,0.43,1.38-0.12,1.85c-0.44,0.39-1.06,0.42-1.55,0.13l-8.31,7.34c0.2,0.25,0.36,0.52,0.49,0.81l16.43-5.22
	c-0.04-0.7,0.39-1.36,1.08-1.57c0.82-0.26,1.71,0.2,1.97,1.02s-0.2,1.71-1.02,1.97L58.3,32.13z"/>
</svg>
