<?xml version="1.0" encoding="utf-8"?>
<!-- Generator: Adobe Illustrator 28.0.0, SVG Export Plug-In . SVG Version: 6.00 Build 0)  -->
<svg version="1.1" id="圖層_1" xmlns="http://www.w3.org/2000/svg" xmlns:xlink="http://www.w3.org/1999/xlink" x="0px" y="0px"
	 viewBox="0 0 72 48.28" style="enable-background:new 0 0 72 48.28;" xml:space="preserve">
<style type="text/css">
	.st0{fill-rule:evenodd;clip-rule:evenodd;fill:#DF0011;}
	.st1{fill-rule:evenodd;clip-rule:evenodd;fill:#003686;}
	.st2{fill-rule:evenodd;clip-rule:evenodd;fill:#FFFFFF;}
</style>
<g>
	<path class="st0" d="M0,48.28h72V0.16H0V48.28z"/>
	<path class="st1" d="M0,24.21h36V0.16H0V24.21z"/>
	<path class="st2" d="M18.01,3.17l1.15,4.66l3.34-3.45L21.2,8.98l4.59-1.31l-3.45,3.35l4.65,1.15l-4.65,1.18l3.45,3.35l-4.59-1.33
		L22.5,20l-3.34-3.45l-1.15,4.66l-1.18-4.66L13.52,20l1.31-4.63l-4.62,1.33l3.45-3.35l-4.65-1.18l4.65-1.15l-3.45-3.35l4.62,1.31
		l-1.31-4.61l3.32,3.45L18.01,3.17z"/>
	<path class="st1" d="M18.01,17.3h0.26l0.26-0.03l0.26-0.03l0.24-0.05l0.26-0.05l0.24-0.08l0.23-0.08L20,16.88l0.21-0.08l0.23-0.13
		l0.21-0.11l0.21-0.16l0.21-0.13l0.18-0.16l0.18-0.16l0.18-0.18l0.16-0.16l0.18-0.18l0.13-0.21l0.16-0.21l0.13-0.18l0.13-0.21
		l0.11-0.24l0.1-0.24l0.08-0.21l0.08-0.26l0.08-0.24L23,13.22l0.05-0.26l0.03-0.26l0.03-0.24v-0.29v-0.26l-0.03-0.26l-0.03-0.23
		L23,11.15l-0.05-0.24l-0.08-0.26l-0.08-0.24l-0.08-0.24l-0.1-0.21L22.5,9.74l-0.13-0.21l-0.13-0.21l-0.16-0.21l-0.13-0.18
		l-0.18-0.18l-0.16-0.18L21.43,8.4l-0.18-0.16l-0.18-0.16l-0.21-0.16L20.65,7.8L20.44,7.7l-0.23-0.13L20,7.46l-0.24-0.08L19.53,7.3
		l-0.24-0.08l-0.26-0.05L18.8,7.12l-0.26-0.03l-0.26-0.03h-0.26h-0.26l-0.26,0.03l-0.26,0.03l-0.26,0.05l-0.23,0.05L16.5,7.3
		l-0.23,0.08l-0.24,0.08l-0.23,0.11L15.59,7.7L15.38,7.8l-0.21,0.13l-0.21,0.16l-0.18,0.16L14.59,8.4l-0.18,0.16l-0.18,0.18
		l-0.16,0.18l-0.16,0.18l-0.13,0.21l-0.13,0.21l-0.13,0.21l-0.1,0.24l-0.11,0.21l-0.11,0.24l-0.08,0.24l-0.05,0.26L13,11.15
		l-0.03,0.26l-0.05,0.23v0.26l-0.03,0.26l0.03,0.29v0.24l0.05,0.26L13,13.22l0.08,0.24l0.05,0.24l0.08,0.26l0.11,0.21l0.11,0.24
		l0.1,0.24l0.13,0.21l0.13,0.18l0.13,0.21l0.16,0.21l0.16,0.18l0.18,0.16l0.18,0.18l0.18,0.16l0.18,0.16l0.21,0.13l0.21,0.16
		l0.21,0.11l0.21,0.13l0.23,0.08l0.24,0.11l0.23,0.08l0.24,0.08l0.23,0.05l0.26,0.05l0.26,0.03l0.26,0.03H18.01z"/>
	<path class="st2" d="M18.01,16.7l0.23-0.03h0.21l0.24-0.03l0.21-0.05l0.23-0.05l0.21-0.05l0.21-0.08l0.21-0.08l0.18-0.08l0.21-0.11
		l0.18-0.11l0.18-0.13l0.18-0.13l0.16-0.13l0.18-0.13l0.16-0.16l0.13-0.16l0.16-0.16l0.13-0.18l0.13-0.16l0.11-0.18l0.11-0.21
		l0.1-0.18l0.11-0.21l0.08-0.21l0.05-0.18l0.08-0.23l0.05-0.21l0.03-0.21l0.03-0.24l0.03-0.24v-0.24v-0.23l-0.03-0.21l-0.03-0.24
		l-0.03-0.21l-0.05-0.24l-0.08-0.21l-0.05-0.21l-0.08-0.21l-0.11-0.18l-0.1-0.21l-0.11-0.18l-0.11-0.18l-0.13-0.18l-0.13-0.16
		l-0.16-0.18L21.2,8.98l-0.16-0.13l-0.18-0.16L20.7,8.56l-0.18-0.13l-0.18-0.1l-0.18-0.11l-0.21-0.11l-0.18-0.08l-0.21-0.1
		l-0.21-0.05L19.13,7.8L18.9,7.75l-0.21-0.03L18.46,7.7l-0.21-0.03h-0.23h-0.24L17.54,7.7l-0.21,0.03L17.1,7.75L16.89,7.8
		l-0.21,0.08l-0.21,0.05l-0.21,0.1l-0.21,0.08l-0.18,0.11l-0.18,0.11l-0.18,0.1l-0.18,0.13l-0.18,0.13l-0.16,0.16l-0.16,0.13
		l-0.16,0.16l-0.13,0.18l-0.13,0.16l-0.13,0.18l-0.13,0.18l-0.11,0.18l-0.1,0.21l-0.08,0.18l-0.08,0.21l-0.08,0.21l-0.05,0.21
		l-0.05,0.24l-0.05,0.21l-0.03,0.24v0.21l-0.03,0.23l0.03,0.24v0.24l0.03,0.24l0.05,0.21l0.05,0.21l0.05,0.23l0.08,0.18l0.08,0.21
		l0.08,0.21l0.1,0.18l0.11,0.21l0.13,0.18l0.13,0.16l0.13,0.18l0.13,0.16l0.16,0.16l0.16,0.16l0.16,0.13l0.18,0.13l0.18,0.13
		l0.18,0.13l0.18,0.11l0.18,0.11l0.21,0.08l0.21,0.08l0.21,0.08l0.21,0.05l0.21,0.05l0.23,0.05l0.21,0.03h0.23L18.01,16.7z"/>
</g>
</svg>
